# xmcd
#
# Track frame offsets:
#	150
#	18551
#	47257
#	70356
#	97380
#	119828
#	135966
#	153024
#	170165
#	191050
#	210140
#
# Disc length: 2994
#
# Revision: 0
# Processed by: cddbd v1.5.2PL0 Copyright (c) Steve Scherf et al.
# Submitted via: Broken X Disk Manager 4.07.2267
#
DISCID=970bb00b
DTITLE=Roger Chapman - One More Time For Peace
DYEAR=2007
DGENRE=Rock
TTITLE0=One More Time For Peace!
TTITLE1=Heading Back To Storyville
TTITLE2=All Too Soon
TTITLE3=Oh Brother, Take Me!
TTITLE4=Hell Of A Lullaby
TTITLE5=All Night Paradise
TTITLE6=Naked Hearts
TTITLE7=Sweet Bird
TTITLE8=Devil Got A Son
TTITLE9=The Same Old Loving Feeling
TTITLE10=Jerusalem
EXTD=
EXTT0=
EXTT1=
EXTT2=
EXTT3=
EXTT4=
EXTT5=
EXTT6=
EXTT7=
EXTT8=
EXTT9=
EXTT10=
PLAYORDER=
